<mxfile host="Electron" agent="Mozilla/5.0 (Windows NT 10.0; Win64; x64) AppleWebKit/537.36 (KHTML, like Gecko) draw.io/26.1.1 Chrome/132.0.6834.210 Electron/34.3.3 Safari/537.36" version="26.1.1">
  <diagram name="페이지-1" id="DyPZfkmddcYTR19tiXhP">
    <mxGraphModel dx="627" dy="473" grid="1" gridSize="10" guides="1" tooltips="1" connect="1" arrows="1" fold="1" page="1" pageScale="1" pageWidth="827" pageHeight="1169" math="0" shadow="0">
      <root>
        <mxCell id="0" />
        <mxCell id="1" parent="0" />
        <mxCell id="CmIFzgj1QeB7okfdOUVI-1" value="" style="endArrow=classic;html=1;rounded=0;" edge="1" parent="1">
          <mxGeometry width="50" height="50" relative="1" as="geometry">
            <mxPoint x="130" y="160" as="sourcePoint" />
            <mxPoint x="130" y="50" as="targetPoint" />
          </mxGeometry>
        </mxCell>
        <mxCell id="CmIFzgj1QeB7okfdOUVI-2" value="" style="endArrow=classic;html=1;rounded=0;" edge="1" parent="1">
          <mxGeometry width="50" height="50" relative="1" as="geometry">
            <mxPoint x="130" y="160" as="sourcePoint" />
            <mxPoint x="240" y="160" as="targetPoint" />
          </mxGeometry>
        </mxCell>
        <mxCell id="CmIFzgj1QeB7okfdOUVI-3" value="Global&amp;nbsp; 좌표계&lt;div&gt;(절대)&lt;/div&gt;" style="text;html=1;align=center;verticalAlign=middle;whiteSpace=wrap;rounded=0;" vertex="1" parent="1">
          <mxGeometry x="120" y="170" width="100" height="30" as="geometry" />
        </mxCell>
        <mxCell id="CmIFzgj1QeB7okfdOUVI-4" value="Transform(좌표계 변환)" style="text;html=1;align=center;verticalAlign=middle;whiteSpace=wrap;rounded=0;" vertex="1" parent="1">
          <mxGeometry x="190" y="10" width="160" height="30" as="geometry" />
        </mxCell>
        <mxCell id="CmIFzgj1QeB7okfdOUVI-5" value="복잡한 벡터연산 - 지역좌표계 사용" style="text;html=1;whiteSpace=wrap;overflow=hidden;rounded=0;" vertex="1" parent="1">
          <mxGeometry x="300" y="150" width="200" height="60" as="geometry" />
        </mxCell>
        <mxCell id="CmIFzgj1QeB7okfdOUVI-6" value="Position 위치 변환" style="text;html=1;align=center;verticalAlign=middle;whiteSpace=wrap;rounded=0;" vertex="1" parent="1">
          <mxGeometry x="200" y="40" width="130" height="30" as="geometry" />
        </mxCell>
        <mxCell id="CmIFzgj1QeB7okfdOUVI-7" value="Rotation 회전 변환" style="text;html=1;align=center;verticalAlign=middle;whiteSpace=wrap;rounded=0;" vertex="1" parent="1">
          <mxGeometry x="200" y="70" width="130" height="30" as="geometry" />
        </mxCell>
        <mxCell id="CmIFzgj1QeB7okfdOUVI-8" value="Scale 크기 변환" style="text;html=1;align=center;verticalAlign=middle;whiteSpace=wrap;rounded=0;" vertex="1" parent="1">
          <mxGeometry x="200" y="100" width="130" height="30" as="geometry" />
        </mxCell>
      </root>
    </mxGraphModel>
  </diagram>
</mxfile>
